<svg xmlns="http://www.w3.org/2000/svg" width="128" height="128" viewBox="0 0 128 128">
  <defs>
    <linearGradient id="bg" x1="0" y1="0" x2="0" y2="1">
      <stop offset="0%" stop-color="#161220"/>
      <stop offset="100%" stop-color="#0c0a12"/>
    </linearGradient>
    <linearGradient id="body" x1="0" y1="0" x2="0" y2="1">
      <stop offset="0%" stop-color="#fb7185"/>
      <stop offset="100%" stop-color="#e11d48"/>
    </linearGradient>
    <radialGradient id="belly" cx="42%" cy="38%" r="45%">
      <stop offset="0%" stop-color="#fda4af" stop-opacity=".25"/>
      <stop offset="100%" stop-color="#fda4af" stop-opacity="0"/>
    </radialGradient>
  </defs>
  <rect width="128" height="128" rx="28" fill="url(#bg)"/>
  <rect x=".5" y=".5" width="127" height="127" rx="27.5" fill="none" stroke="#f43f5e" stroke-opacity=".06"/>
  <ellipse cx="64" cy="70" rx="33" ry="31" fill="url(#body)"/>
  <ellipse cx="64" cy="70" rx="33" ry="31" fill="url(#belly)"/>
  <rect x="52" y="98" width="9" height="13" rx="4.5" fill="#be123c"/>
  <rect x="67" y="98" width="9" height="13" rx="4.5" fill="#be123c"/>
  <ellipse cx="25" cy="70" rx="10" ry="8" fill="#be123c"/>
  <path d="M19,63 L25,70 L31,63" stroke="#0c0a12" stroke-width="2" fill="none" stroke-linecap="round"/>
  <ellipse cx="103" cy="70" rx="10" ry="8" fill="#be123c"/>
  <path d="M97,63 L103,70 L109,63" stroke="#0c0a12" stroke-width="2" fill="none" stroke-linecap="round"/>
  <line x1="50" y1="42" x2="41" y2="22" stroke="#be123c" stroke-width="2.5" stroke-linecap="round"/>
  <circle cx="40" cy="20" r="4" fill="#fda4af"/>
  <circle cx="40" cy="20" r="1.5" fill="#fff" opacity=".4"/>
  <line x1="78" y1="42" x2="87" y2="22" stroke="#be123c" stroke-width="2.5" stroke-linecap="round"/>
  <circle cx="88" cy="20" r="4" fill="#fda4af"/>
  <circle cx="88" cy="20" r="1.5" fill="#fff" opacity=".4"/>
  <circle cx="52" cy="65" r="10" fill="#fff"/>
  <circle cx="76" cy="65" r="10" fill="#fff"/>
  <circle cx="54" cy="64" r="5.5" fill="#4c0519"/>
  <circle cx="78" cy="64" r="5.5" fill="#4c0519"/>
  <circle cx="56" cy="62" r="2.2" fill="#fff"/>
  <circle cx="80" cy="62" r="2.2" fill="#fff"/>
  <circle cx="52" cy="67" r="1" fill="#fff" opacity=".35"/>
  <circle cx="76" cy="67" r="1" fill="#fff" opacity=".35"/>
  <path d="M57,78 Q64,84 73,77" stroke="#9f1239" stroke-width="2" fill="none" stroke-linecap="round"/>
</svg>
