<svg xmlns="http://www.w3.org/2000/svg" width="512" height="512" viewBox="0 0 160 160">
  <defs>
    <linearGradient id="bg" x1="0" y1="0" x2="0" y2="1">
      <stop offset="0%" stop-color="#161220"/>
      <stop offset="100%" stop-color="#0a0810"/>
    </linearGradient>
    <linearGradient id="body" x1="0" y1="0" x2="0" y2="1">
      <stop offset="0%" stop-color="#fb7185"/>
      <stop offset="100%" stop-color="#e11d48"/>
    </linearGradient>
    <radialGradient id="belly" cx="42%" cy="38%" r="45%">
      <stop offset="0%" stop-color="#fecdd3" stop-opacity=".22"/>
      <stop offset="100%" stop-color="#fecdd3" stop-opacity="0"/>
    </radialGradient>
    <radialGradient id="glow" cx="50%" cy="46%" r="42%">
      <stop offset="0%" stop-color="#f43f5e" stop-opacity=".12"/>
      <stop offset="100%" stop-color="#f43f5e" stop-opacity="0"/>
    </radialGradient>
  </defs>
  <rect width="160" height="160" rx="36" fill="url(#bg)"/>
  <rect width="160" height="160" rx="36" fill="url(#glow)"/>
  <rect x=".5" y=".5" width="159" height="159" rx="35.5" fill="none" stroke="#f43f5e" stroke-opacity=".06"/>
  <ellipse cx="80" cy="84" rx="40" ry="38" fill="url(#body)"/>
  <ellipse cx="80" cy="84" rx="40" ry="38" fill="url(#belly)"/>
  <rect x="64" y="118" width="11" height="16" rx="5.5" fill="#be123c"/>
  <rect x="83" y="118" width="11" height="16" rx="5.5" fill="#be123c"/>
  <ellipse cx="32" cy="84" rx="13" ry="10" fill="#be123c"/>
  <path d="M24,76 L32,84 L40,76" stroke="#0a0810" stroke-width="2" fill="none" stroke-linecap="round"/>
  <ellipse cx="128" cy="84" rx="13" ry="10" fill="#be123c"/>
  <path d="M120,76 L128,84 L136,76" stroke="#0a0810" stroke-width="2" fill="none" stroke-linecap="round"/>
  <line x1="64" y1="48" x2="52" y2="26" stroke="#be123c" stroke-width="3" stroke-linecap="round"/>
  <circle cx="51" cy="24" r="5" fill="#fda4af"/>
  <circle cx="51" cy="24" r="2" fill="#fff" opacity=".4"/>
  <line x1="96" y1="48" x2="108" y2="26" stroke="#be123c" stroke-width="3" stroke-linecap="round"/>
  <circle cx="109" cy="24" r="5" fill="#fda4af"/>
  <circle cx="109" cy="24" r="2" fill="#fff" opacity=".4"/>
  <circle cx="67" cy="80" r="12" fill="#fff"/>
  <circle cx="93" cy="80" r="12" fill="#fff"/>
  <ellipse cx="67" cy="74" rx="11" ry="4" fill="#be123c" opacity=".1"/>
  <ellipse cx="93" cy="74" rx="11" ry="4" fill="#be123c" opacity=".1"/>
  <circle cx="70" cy="79" r="6.5" fill="#4c0519"/>
  <circle cx="96" cy="79" r="6.5" fill="#4c0519"/>
  <circle cx="72.5" cy="77" r="2.8" fill="#fff"/>
  <circle cx="98.5" cy="77" r="2.8" fill="#fff"/>
  <circle cx="67" cy="83" r="1.3" fill="#fff" opacity=".3"/>
  <circle cx="93" cy="83" r="1.3" fill="#fff" opacity=".3"/>
  <line x1="56" y1="66" x2="74" y2="64" stroke="#9f1239" stroke-width="2.5" stroke-linecap="round"/>
  <line x1="104" y1="66" x2="86" y2="64" stroke="#9f1239" stroke-width="2.5" stroke-linecap="round"/>
  <path d="M71,95 Q80,102 92,94" stroke="#9f1239" stroke-width="2.5" fill="none" stroke-linecap="round"/>
</svg>
