<svg xmlns="http://www.w3.org/2000/svg" width="320" height="72" viewBox="0 0 320 72">
  <style>
    @import url('https://fonts.googleapis.com/css2?family=Plus+Jakarta+Sans:wght@800&amp;display=swap');
  </style>
  <defs>
    <linearGradient id="body" x1="0" y1="0" x2="0" y2="1">
      <stop offset="0%" stop-color="#fb7185"/>
      <stop offset="100%" stop-color="#e11d48"/>
    </linearGradient>
    <linearGradient id="profGrad" x1="0" y1="0" x2="1" y2="1">
      <stop offset="0%" stop-color="#fb7185"/>
      <stop offset="60%" stop-color="#f43f5e"/>
      <stop offset="100%" stop-color="#e11d48"/>
    </linearGradient>
    <filter id="shadow" x="-2%" y="-2%" width="104%" height="112%">
      <feDropShadow dx="0" dy="1.5" stdDeviation="1.2" flood-color="#f43f5e" flood-opacity=".25"/>
    </filter>
    <filter id="iconShadow" x="-10%" y="-10%" width="120%" height="120%">
      <feDropShadow dx="0" dy="2" stdDeviation="2" flood-color="#f43f5e" flood-opacity=".2"/>
    </filter>
  </defs>
  <!-- Mascot icon -->
  <g transform="translate(3,6) scale(0.6)" filter="url(#iconShadow)">
    <ellipse cx="50" cy="54" rx="24" ry="22" fill="url(#body)"/>
    <ellipse cx="48" cy="49" rx="13" ry="9" fill="#fda4af" opacity=".15"/>
    <rect x="39" y="73" width="8" height="10" rx="4" fill="#be123c"/>
    <rect x="53" y="73" width="8" height="10" rx="4" fill="#be123c"/>
    <ellipse cx="20" cy="54" rx="8" ry="6" fill="#be123c"/>
    <path d="M15,49 L20,54 L25,49" stroke="#4c0519" stroke-width="1.8" fill="none" stroke-linecap="round"/>
    <ellipse cx="80" cy="54" rx="8" ry="6" fill="#be123c"/>
    <path d="M75,49 L80,54 L85,49" stroke="#4c0519" stroke-width="1.8" fill="none" stroke-linecap="round"/>
    <line x1="39" y1="34" x2="31" y2="20" stroke="#be123c" stroke-width="2.2" stroke-linecap="round"/>
    <circle cx="30" cy="18" r="3.5" fill="#fda4af"/>
    <line x1="61" y1="34" x2="69" y2="20" stroke="#be123c" stroke-width="2.2" stroke-linecap="round"/>
    <circle cx="70" cy="18" r="3.5" fill="#fda4af"/>
    <circle cx="43" cy="51" r="6.5" fill="#fff"/>
    <circle cx="57" cy="51" r="6.5" fill="#fff"/>
    <circle cx="44.5" cy="50" r="3.5" fill="#4c0519"/>
    <circle cx="58.5" cy="50" r="3.5" fill="#4c0519"/>
    <circle cx="46" cy="48.5" r="1.4" fill="#fff"/>
    <circle cx="60" cy="48.5" r="1.4" fill="#fff"/>
    <path d="M45,63 Q50,68 57,62" stroke="#9f1239" stroke-width="2" fill="none" stroke-linecap="round"/>
  </g>
  <!-- Wordmark -->
  <text x="70" y="48" font-family="'Plus Jakarta Sans', system-ui, sans-serif" font-weight="800" font-size="40" letter-spacing="-1.8" filter="url(#shadow)">
    <tspan fill="url(#profGrad)">prof</tspan><tspan fill="#ffffff">Claw</tspan>
  </text>
</svg>
