<svg xmlns="http://www.w3.org/2000/svg" width="512" height="512" viewBox="0 0 160 160">
  <defs>
    <linearGradient id="bg" x1="0" y1="0" x2="0" y2="1">
      <stop offset="0%" stop-color="#161220"/>
      <stop offset="100%" stop-color="#0a0810"/>
    </linearGradient>
    <radialGradient id="glow" cx="50%" cy="46%" r="40%">
      <stop offset="0%" stop-color="#f43f5e" stop-opacity=".1"/>
      <stop offset="100%" stop-color="#f43f5e" stop-opacity="0"/>
    </radialGradient>
    <linearGradient id="body" x1="0" y1="0" x2="0" y2="1">
      <stop offset="0%" stop-color="#4a2838"/>
      <stop offset="100%" stop-color="#2e1828"/>
    </linearGradient>
    <radialGradient id="belly" cx="42%" cy="38%" r="45%">
      <stop offset="0%" stop-color="#f43f5e" stop-opacity=".12"/>
      <stop offset="100%" stop-color="#f43f5e" stop-opacity="0"/>
    </radialGradient>
  </defs>
  <rect width="160" height="160" rx="36" fill="url(#bg)"/>
  <rect width="160" height="160" rx="36" fill="url(#glow)"/>
  <rect x=".5" y=".5" width="159" height="159" rx="35.5" fill="none" stroke="#f43f5e" stroke-opacity=".06"/>
  <ellipse cx="80" cy="86" rx="40" ry="38" fill="url(#body)"/>
  <ellipse cx="80" cy="86" rx="40" ry="38" fill="url(#belly)"/>
  <ellipse cx="80" cy="86" rx="39.5" ry="37.5" fill="none" stroke="#f43f5e" stroke-opacity=".12"/>
  <ellipse cx="75" cy="80" rx="22" ry="16" fill="#fb7185" opacity=".05"/>
  <rect x="64" y="120" width="11" height="16" rx="5.5" fill="#2e1828"/>
  <rect x="83" y="120" width="11" height="16" rx="5.5" fill="#2e1828"/>
  <ellipse cx="32" cy="86" rx="13" ry="10" fill="#3a1e2c"/>
  <path d="M24,77 L32,86 L40,77" stroke="#f43f5e" stroke-width="1.8" fill="none" stroke-linecap="round" opacity=".3"/>
  <ellipse cx="128" cy="86" rx="13" ry="10" fill="#3a1e2c"/>
  <path d="M120,77 L128,86 L136,77" stroke="#f43f5e" stroke-width="1.8" fill="none" stroke-linecap="round" opacity=".3"/>
  <line x1="64" y1="50" x2="52" y2="28" stroke="#3a2030" stroke-width="3" stroke-linecap="round"/>
  <circle cx="51" cy="26" r="6" fill="#f43f5e" opacity=".12"/>
  <circle cx="51" cy="26" r="4" fill="#f43f5e" opacity=".45"/>
  <circle cx="51" cy="26" r="1.8" fill="#fb7185" opacity=".8"/>
  <line x1="96" y1="50" x2="108" y2="28" stroke="#3a2030" stroke-width="3" stroke-linecap="round"/>
  <circle cx="109" cy="26" r="6" fill="#f43f5e" opacity=".12"/>
  <circle cx="109" cy="26" r="4" fill="#f43f5e" opacity=".45"/>
  <circle cx="109" cy="26" r="1.8" fill="#fb7185" opacity=".8"/>
  <circle cx="67" cy="82" r="20" fill="#f43f5e" opacity=".1"/>
  <circle cx="93" cy="82" r="20" fill="#f43f5e" opacity=".1"/>
  <circle cx="67" cy="82" r="11" fill="#fff"/>
  <circle cx="93" cy="82" r="11" fill="#fff"/>
  <circle cx="70" cy="80" r="6.5" fill="#4c0519"/>
  <circle cx="96" cy="80" r="6.5" fill="#4c0519"/>
  <circle cx="72.5" cy="78" r="2.8" fill="#fff"/>
  <circle cx="98.5" cy="78" r="2.8" fill="#fff"/>
  <circle cx="67" cy="84" r="1.3" fill="#fff" opacity=".35"/>
  <circle cx="93" cy="84" r="1.3" fill="#fff" opacity=".35"/>
</svg>
