<svg xmlns="http://www.w3.org/2000/svg" width="100" height="100" viewBox="0 0 100 100">
  <ellipse cx="50" cy="54" rx="24" ry="22" fill="#fff" opacity=".95"/>
  <ellipse cx="48" cy="50" rx="14" ry="10" fill="#fff" opacity=".15"/>
  <rect x="39" y="73" width="8" height="10" rx="4" fill="#fff" opacity=".7"/>
  <rect x="53" y="73" width="8" height="10" rx="4" fill="#fff" opacity=".7"/>
  <ellipse cx="20" cy="54" rx="8" ry="6" fill="#fff" opacity=".7"/>
  <path d="M15,49 L20,54 L25,49" stroke="#08080d" stroke-width="1.5" fill="none" stroke-linecap="round" opacity=".5"/>
  <ellipse cx="80" cy="54" rx="8" ry="6" fill="#fff" opacity=".7"/>
  <path d="M75,49 L80,54 L85,49" stroke="#08080d" stroke-width="1.5" fill="none" stroke-linecap="round" opacity=".5"/>
  <line x1="39" y1="34" x2="31" y2="20" stroke="#fff" stroke-width="2.2" stroke-linecap="round" opacity=".7"/>
  <circle cx="30" cy="18" r="3.5" fill="#fff" opacity=".85"/>
  <line x1="61" y1="34" x2="69" y2="20" stroke="#fff" stroke-width="2.2" stroke-linecap="round" opacity=".7"/>
  <circle cx="70" cy="18" r="3.5" fill="#fff" opacity=".85"/>
  <circle cx="43" cy="51" r="6" fill="#08080d"/>
  <circle cx="57" cy="51" r="6" fill="#08080d"/>
  <circle cx="44.5" cy="49.5" r="2.2" fill="#fff"/>
  <circle cx="58.5" cy="49.5" r="2.2" fill="#fff"/>
</svg>
