<svg xmlns="http://www.w3.org/2000/svg" width="1280" height="640" viewBox="0 0 1280 640">
  <defs>
    <linearGradient id="bg" x1="0" y1="0" x2="0.3" y2="1">
      <stop offset="0%" stop-color="#0f0a1a"/>
      <stop offset="50%" stop-color="#0a0810"/>
      <stop offset="100%" stop-color="#050408"/>
    </linearGradient>
    <linearGradient id="body" x1="0" y1="0" x2="0" y2="1">
      <stop offset="0%" stop-color="#fb7185"/>
      <stop offset="100%" stop-color="#e11d48"/>
    </linearGradient>
    <radialGradient id="glow1" cx="50%" cy="45%" r="35%">
      <stop offset="0%" stop-color="#f43f5e" stop-opacity=".08"/>
      <stop offset="100%" stop-color="#f43f5e" stop-opacity="0"/>
    </radialGradient>
    <radialGradient id="glow2" cx="30%" cy="70%" r="30%">
      <stop offset="0%" stop-color="#fb7185" stop-opacity=".05"/>
      <stop offset="100%" stop-color="#fb7185" stop-opacity="0"/>
    </radialGradient>
    <linearGradient id="profGrad" x1="0" y1="0" x2="1" y2="1">
      <stop offset="0%" stop-color="#fb7185"/>
      <stop offset="60%" stop-color="#f43f5e"/>
      <stop offset="100%" stop-color="#e11d48"/>
    </linearGradient>
  </defs>
  <!-- Background -->
  <rect width="1280" height="640" fill="url(#bg)"/>
  <rect width="1280" height="640" fill="url(#glow1)"/>
  <rect width="1280" height="640" fill="url(#glow2)"/>
  <!-- Subtle border -->
  <rect x="1" y="1" width="1278" height="638" rx="0" fill="none" stroke="#f43f5e" stroke-opacity=".04"/>
  <!-- Mascot - centered, large -->
  <g transform="translate(490,120) scale(1.8)">
    <ellipse cx="50" cy="54" rx="24" ry="22" fill="url(#body)"/>
    <ellipse cx="48" cy="49" rx="13" ry="9" fill="#fda4af" opacity=".15"/>
    <rect x="39" y="73" width="8" height="10" rx="4" fill="#be123c"/>
    <rect x="53" y="73" width="8" height="10" rx="4" fill="#be123c"/>
    <ellipse cx="20" cy="54" rx="8" ry="6" fill="#be123c"/>
    <path d="M15,49 L20,54 L25,49" stroke="#4c0519" stroke-width="1.8" fill="none" stroke-linecap="round"/>
    <ellipse cx="80" cy="54" rx="8" ry="6" fill="#be123c"/>
    <path d="M75,49 L80,54 L85,49" stroke="#4c0519" stroke-width="1.8" fill="none" stroke-linecap="round"/>
    <line x1="39" y1="34" x2="31" y2="20" stroke="#be123c" stroke-width="2.2" stroke-linecap="round"/>
    <circle cx="30" cy="18" r="3.5" fill="#fda4af"/>
    <line x1="61" y1="34" x2="69" y2="20" stroke="#be123c" stroke-width="2.2" stroke-linecap="round"/>
    <circle cx="70" cy="18" r="3.5" fill="#fda4af"/>
    <circle cx="43" cy="51" r="6.5" fill="#fff"/>
    <circle cx="57" cy="51" r="6.5" fill="#fff"/>
    <circle cx="44.5" cy="50" r="3.5" fill="#4c0519"/>
    <circle cx="58.5" cy="50" r="3.5" fill="#4c0519"/>
    <circle cx="46" cy="48.5" r="1.4" fill="#fff"/>
    <circle cx="60" cy="48.5" r="1.4" fill="#fff"/>
    <path d="M45,63 Q50,68 57,62" stroke="#9f1239" stroke-width="2" fill="none" stroke-linecap="round"/>
  </g>
  <!-- Wordmark -->
  <text x="640" y="440" text-anchor="middle" font-family="'Helvetica Neue', 'SF Pro Display', -apple-system, system-ui, sans-serif" font-weight="800" font-size="72" letter-spacing="-3">
    <tspan fill="url(#profGrad)">prof</tspan><tspan fill="#ffffff">Claw</tspan>
  </text>
  <!-- Tagline -->
  <text x="640" y="490" text-anchor="middle" font-family="'Helvetica Neue', 'SF Pro Display', -apple-system, system-ui, sans-serif" font-weight="400" font-size="24" fill="#8892b0" letter-spacing="0.5">
    AI Agent Engine - Self-Hosted
  </text>
  <!-- URL -->
  <text x="640" y="580" text-anchor="middle" font-family="'Helvetica Neue', 'SF Pro Display', -apple-system, system-ui, sans-serif" font-weight="500" font-size="18" fill="#4c5578" letter-spacing="2">
    profclaw.ai
  </text>
</svg>
