<svg xmlns="http://www.w3.org/2000/svg" width="1200" height="630" viewBox="0 0 1200 630">
  <defs>
    <linearGradient id="bg" x1="0" y1="0" x2="0.5" y2="1">
      <stop offset="0%" stop-color="#ffffff"/>
      <stop offset="100%" stop-color="#fafbff"/>
    </linearGradient>
    <linearGradient id="body" x1="0" y1="0" x2="0" y2="1">
      <stop offset="0%" stop-color="#fb7185"/>
      <stop offset="100%" stop-color="#e11d48"/>
    </linearGradient>
    <radialGradient id="glow" cx="30%" cy="50%" r="45%">
      <stop offset="0%" stop-color="#fda4af" stop-opacity=".12"/>
      <stop offset="100%" stop-color="#fda4af" stop-opacity="0"/>
    </radialGradient>
    <linearGradient id="profGrad" x1="0" y1="0" x2="1" y2="1">
      <stop offset="0%" stop-color="#f43f5e"/>
      <stop offset="60%" stop-color="#e11d48"/>
      <stop offset="100%" stop-color="#be123c"/>
    </linearGradient>
  </defs>
  <rect width="1200" height="630" fill="url(#bg)"/>
  <rect width="1200" height="630" fill="url(#glow)"/>
  <rect x="1" y="1" width="1198" height="628" fill="none" stroke="#e2e8f0" stroke-opacity=".5"/>
  <!-- Mascot left-center -->
  <g transform="translate(120,140) scale(2.2)">
    <ellipse cx="50" cy="54" rx="24" ry="22" fill="url(#body)"/>
    <ellipse cx="48" cy="49" rx="13" ry="9" fill="#fda4af" opacity=".15"/>
    <rect x="39" y="73" width="8" height="10" rx="4" fill="#be123c"/>
    <rect x="53" y="73" width="8" height="10" rx="4" fill="#be123c"/>
    <ellipse cx="20" cy="54" rx="8" ry="6" fill="#be123c"/>
    <path d="M15,49 L20,54 L25,49" stroke="#9f1239" stroke-width="1.8" fill="none" stroke-linecap="round"/>
    <ellipse cx="80" cy="54" rx="8" ry="6" fill="#be123c"/>
    <path d="M75,49 L80,54 L85,49" stroke="#9f1239" stroke-width="1.8" fill="none" stroke-linecap="round"/>
    <line x1="39" y1="34" x2="31" y2="20" stroke="#be123c" stroke-width="2.2" stroke-linecap="round"/>
    <circle cx="30" cy="18" r="3.5" fill="#fda4af"/>
    <line x1="61" y1="34" x2="69" y2="20" stroke="#be123c" stroke-width="2.2" stroke-linecap="round"/>
    <circle cx="70" cy="18" r="3.5" fill="#fda4af"/>
    <circle cx="43" cy="51" r="6.5" fill="#fff"/>
    <circle cx="57" cy="51" r="6.5" fill="#fff"/>
    <circle cx="44.5" cy="50" r="3.5" fill="#4c0519"/>
    <circle cx="58.5" cy="50" r="3.5" fill="#4c0519"/>
    <circle cx="46" cy="48.5" r="1.4" fill="#fff"/>
    <circle cx="60" cy="48.5" r="1.4" fill="#fff"/>
    <path d="M45,63 Q50,68 57,62" stroke="#9f1239" stroke-width="2" fill="none" stroke-linecap="round"/>
  </g>
  <!-- Text block right -->
  <text x="500" y="270" font-family="'Helvetica Neue', -apple-system, system-ui, sans-serif" font-weight="800" font-size="80" letter-spacing="-3.5">
    <tspan fill="url(#profGrad)">prof</tspan><tspan fill="#1a1a2e">Claw</tspan>
  </text>
  <text x="504" y="330" font-family="'Helvetica Neue', -apple-system, system-ui, sans-serif" font-weight="400" font-size="28" fill="#64748b" letter-spacing="0.5">
    AI Agent Engine
  </text>
  <!-- Feature pills -->
  <g font-family="'Helvetica Neue', -apple-system, system-ui, sans-serif" font-weight="500" font-size="16">
    <rect x="500" y="380" width="140" height="36" rx="18" fill="none" stroke="#e11d48" stroke-opacity=".25"/>
    <text x="570" y="403" text-anchor="middle" fill="#e11d48">37 AI Providers</text>
    <rect x="660" y="380" width="150" height="36" rx="18" fill="none" stroke="#e11d48" stroke-opacity=".25"/>
    <text x="735" y="403" text-anchor="middle" fill="#e11d48">27 Chat Channels</text>
    <rect x="830" y="380" width="110" height="36" rx="18" fill="none" stroke="#e11d48" stroke-opacity=".25"/>
    <text x="885" y="403" text-anchor="middle" fill="#e11d48">77+ Tools</text>
  </g>
  <text x="504" y="530" font-family="'Helvetica Neue', -apple-system, system-ui, sans-serif" font-weight="500" font-size="20" fill="#94a3b8" letter-spacing="1.5">
    profclaw.ai
  </text>
</svg>
